<svg id="Calque_1" data-name="Calque 1" xmlns="http://www.w3.org/2000/svg" viewBox="0 0 50 47.92"><title>woosupply-icon</title><path d="M49.33,33.72,31.69,40.14a5.9,5.9,0,0,0-6.2-2.89L13,3A3,3,0,0,0,9.24,1.22L0,4.58.67,6.43,9.91,3.07a1,1,0,0,1,1.26.59L23.65,37.93A5.9,5.9,0,1,0,32.36,42L50,35.57ZM24.8,37.42l-.26.09-.25.1.25-.1Zm.48-.13h0Zm-.24.06-.11,0Zm-1.16.44-.05,0Zm.27-.13-.11,0Zm3.74,9.09a3.93,3.93,0,1,1,2.35-5A3.94,3.94,0,0,1,27.91,46.75Zm4.29-5.46L32.11,41l-.1-.25.1.25Zm.13.48v0Zm-.06-.24,0-.11Zm-.47-1.21,0,.05Zm.11.22,0,.11Z" transform="translate(0 -1.04)"/><path d="M21.26,19.87,27,35.62a7.4,7.4,0,0,1,5.1,2.29l15.64-5.69L40.67,12.81Z" transform="translate(0 -1.04)"/></svg>